73 1
0  7872 7890 7889  -1
1  1382 1383 9560  -1
2  1298 1286 1297  -1
3  9572 9560 1358  -1
4  8411 8412 9552  -1
5  7947 7949 7912  -1
6  7916 7940 7917  -1
7  6633 4669 6540  -1
8  7966 9550 7939  -1
9  6251 6247 8485  -1
10  8485 6247 8486  -1
11  1358 1382 9560  -1
12  7912 7913 7887  -1
13  4652 4642 4628  -1
14  7940 7942 7943  -1
15  803 819 805  -1
16  3598 3592 3595  -1
17  8413 8395 9564  -1
18  3593 3601 3594  -1
19  3598 3595 3599  -1
20  6647 6641 6640  -1
21  8392 8413 9564  -1
22  8393 8392 8394  -1
23  7946 7948 7972  -1
24  822 802 804  -1
25  6070 5885 5884  -1
26  7946 7940 7948  -1
27  9551 9550 9558  -1
28  7912 7889 7892  -1
29  6070 6094 5885  -1
30  8488 8487 6250  -1
31  7938 9551 9576  -1
32  7966 7937 7965  -1
33  1290 1286 1375  -1
34  4663 4172 4643  -1
35  8394 8392 9564  -1
36  1389 1383 1382  -1
37  1351 1377 9553  -1
38  6116 5888 5889  -1
39  7946 7947 7940  -1
40  7971 7940 7967  -1
41  4663 4643 4661  -1
42  1351 1349 1377  -1
43  8474 8483 8482  -1
44  9551 9558 9559  -1
45  6251 8488 6250  -1
46  7966 9576 9550  -1
47  6135 6115 5887  -1
48  1286 1298 557  -1
49  9569 9560 9572  -1
50  1375 1286 559  -1
51  1382 1358 1351  -1
52  1286 557 559  -1
53  822 804 818  -1
54  7940 7972 7948  -1
55  6069 5883 5882  -1
56  1389 1382 1410  -1
57  1377 1278 1290  -1
58  7938 9566 9576  -1
59  7937 9576 9566  -1
60  7971 7967 7966  -1
61  1358 9572 9580  -1
62  1351 1358 9579  -1
63  9572 9569 9578  -1
64  7947 9581 9582  -1
65  9585 9584 9587  -1
66  9586 7938 9587  -1
67  9588 7947 9589  -1
68  9553 1377 9590  -1
69  9554 9590 9591  -1
70  1377 1290 9591  -1
71  9590 1377 9591  -1
72  6250 8486 9592  -1
